<svg width="24" height="24" viewBox="0 0 24 24" fill="currentColor" xmlns="http://www.w3.org/2000/svg" aria-label="Drag handle">
    <circle cx="8" cy="6" r="1.5" />
    <circle cx="16" cy="6" r="1.5" />
    <circle cx="8" cy="12" r="1.5" />
    <circle cx="16" cy="12" r="1.5" />
    <circle cx="8" cy="18" r="1.5" />
    <circle cx="16" cy="18" r="1.5" />
</svg>

<svg width="8" height="13" viewBox="0 0 8 13" fill="none" xmlns="http://www.w3.org/2000/svg">
<path fill-rule="evenodd" clip-rule="evenodd" d="M8 1.50024C8 0.672615 7.32707 0.000244111 6.50125 0.000244075C5.67418 0.000244039 5 0.672615 5 1.50024C5 2.32787 5.67418 3.00024 6.50125 3.00024C7.32707 3.00024 8 2.32787 8 1.50024ZM8 6.50024C8 5.67261 7.32707 5.00024 6.50125 5.00024C5.67419 5.00024 5 5.67261 5 6.50024C5 7.32787 5.67419 8.00024 6.50125 8.00024C7.32707 8.00024 8 7.32787 8 6.50024ZM6.50125 10.0002C7.32707 10.0002 8 10.6726 8 11.5002C8 12.3279 7.32707 13.0002 6.50125 13.0002C5.67419 13.0002 5 12.3279 5 11.5002C5 10.6726 5.67419 10.0002 6.50125 10.0002Z" fill="#176AE5"/>
<path fill-rule="evenodd" clip-rule="evenodd" d="M3 6.50024C3 5.67261 2.32707 5.00024 1.50125 5.00024C0.674185 5.00024 -2.47947e-07 5.67261 -2.84124e-07 6.50024C-3.20301e-07 7.32787 0.674185 8.00024 1.50125 8.00024C2.32707 8.00024 3 7.32787 3 6.50024ZM3 1.50024C3 0.672615 2.32707 0.000244111 1.50125 0.000244075C0.674184 0.000244039 -1.69832e-06 0.672615 -1.7345e-06 1.50024C-1.77067e-06 2.32787 0.674184 3.00024 1.50125 3.00024C2.32707 3.00024 3 2.32787 3 1.50024ZM1.50125 10.0002C2.32707 10.0002 3 10.6726 3 11.5002C3 12.3279 2.32707 13.0002 1.50125 13.0002C0.674186 13.0002 1.76398e-07 12.3279 2.12575e-07 11.5002C2.48752e-07 10.6726 0.674186 10.0002 1.50125 10.0002Z" fill="#176AE5"/>
</svg>
