<svg width="24" height="24" viewBox="0 0 24 24" fill="none" xmlns="http://www.w3.org/2000/svg">
<rect width="24" height="24" rx="8" fill="#707090" fill-opacity="0.1"/>
<rect x="0.5" y="0.5" width="23" height="23" rx="7.5" stroke="#707090" stroke-opacity="0.1"/>
<path opacity="0.4" d="M18.1666 10.1C17.8399 9.58003 17.4666 9.11336 17.0799 8.69336L14.5666 11.2067C14.6466 11.4534 14.6932 11.72 14.6932 12C14.6932 13.4934 13.4866 14.6934 11.9999 14.6934C11.7199 14.6934 11.4532 14.6467 11.2066 14.5667L8.8999 16.8734C9.87324 17.42 10.9266 17.7067 11.9999 17.7067C13.1866 17.7067 14.3399 17.36 15.3932 16.7134C16.4466 16.06 17.3932 15.1067 18.1666 13.8934C18.8332 12.8534 18.8332 11.1467 18.1666 10.1Z" fill="#707090"/>
<path d="M13.3466 10.6533L10.6533 13.3466C10.3133 13 10.0933 12.52 10.0933 12C10.0933 10.9533 10.9466 10.0933 11.9999 10.0933C12.5199 10.0933 12.9999 10.3133 13.3466 10.6533Z" fill="#707090"/>
<path opacity="0.4" d="M16.1663 7.83333L13.9063 10.0933C13.4197 9.6 12.7463 9.30667 11.9997 9.30667C10.5063 9.30667 9.30634 10.5133 9.30634 12C9.30634 12.7467 9.60634 13.42 10.093 13.9067L7.83967 16.1667H7.83301C7.09301 15.5667 6.41301 14.8 5.83301 13.8933C5.16634 12.8467 5.16634 11.1467 5.83301 10.1C6.60634 8.88667 7.55301 7.93333 8.60634 7.28C9.65967 6.64 10.813 6.28667 11.9997 6.28667C13.4863 6.28667 14.9263 6.83333 16.1663 7.83333Z" fill="#707090"/>
<path d="M13.9067 12C13.9067 13.0467 13.0534 13.9067 12.0001 13.9067C11.9601 13.9067 11.9267 13.9067 11.8867 13.8933L13.8934 11.8867C13.9067 11.9267 13.9067 11.96 13.9067 12Z" fill="#707090"/>
<path d="M18.5131 5.48672C18.3131 5.28672 17.9864 5.28672 17.7864 5.48672L5.48643 17.7934C5.28643 17.9934 5.28643 18.3201 5.48643 18.5201C5.58643 18.6134 5.71309 18.6667 5.84643 18.6667C5.97976 18.6667 6.10643 18.6134 6.20643 18.5134L18.5131 6.20672C18.7198 6.00672 18.7198 5.68672 18.5131 5.48672Z" fill="#707090"/>
</svg>
