<svg width="16" height="16" viewBox="0 0 16 16" fill="none" xmlns="http://www.w3.org/2000/svg">
<path opacity="0.4" d="M14.1663 6.1C12.6263 3.68 10.373 2.28667 7.99968 2.28667C6.81301 2.28667 5.65968 2.63333 4.60634 3.28C3.55301 3.93333 2.60634 4.88667 1.83301 6.1C1.16634 7.14667 1.16634 8.84667 1.83301 9.89333C3.37301 12.32 5.62634 13.7067 7.99968 13.7067C9.18634 13.7067 10.3397 13.36 11.393 12.7133C12.4463 12.06 13.393 11.1067 14.1663 9.89333C14.833 8.85333 14.833 7.14667 14.1663 6.1ZM7.99968 10.6933C6.50634 10.6933 5.30634 9.48667 5.30634 8C5.30634 6.51333 6.50634 5.30667 7.99968 5.30667C9.49301 5.30667 10.693 6.51333 10.693 8C10.693 9.48667 9.49301 10.6933 7.99968 10.6933Z" fill="white"/>
<path d="M8.00059 6.09329C6.95392 6.09329 6.10059 6.94663 6.10059 7.99996C6.10059 9.04663 6.95392 9.89996 8.00059 9.89996C9.04725 9.89996 9.90725 9.04663 9.90725 7.99996C9.90725 6.95329 9.04725 6.09329 8.00059 6.09329Z" fill="white"/>
</svg>
