<svg width="100" height="56" viewBox="0 0 100 56" fill="none" xmlns="http://www.w3.org/2000/svg">
<path d="M39.3053 22.9138C39.3733 29.504 34.0038 34.8438 27.4109 34.8438H21.3618V27.4762H27.309C29.8238 27.4762 31.9308 25.4147 31.8968 22.9476C31.8628 20.5142 29.8578 18.5541 27.4109 18.5541H30.4355C30.4355 18.5541 39.0334 18.0471 39.3053 22.9138Z" fill="#0025FF"/>
<path d="M28.0224 18.5541H23.3327C22.2452 18.5541 21.3616 19.4328 21.3616 20.5142V38.5275C21.3616 42.0085 18.5409 44.8136 15.0406 44.8136H13.9531V38.5275V24.4008C13.9531 17.1008 19.9003 11.1865 27.2408 11.1865C33.7997 11.1865 39.2371 16.3911 39.2711 22.9137C39.2711 22.9137 39.3051 24.2994 38.8973 25.9554C38.8973 26.0568 39.543 18.5203 28.0224 18.5541Z" fill="#A71FFD"/>
<path d="M21.3616 20.4804V38.4937C21.3616 41.9747 18.5409 44.7798 15.0406 44.7798H13.9531V38.4937V24.3332C13.9531 17.067 19.9003 11.1865 27.2068 11.1865C27.2408 11.1865 27.2748 11.1865 27.3088 11.1865L28.5662 11.2541C28.5322 11.2541 21.0218 10.95 21.3616 20.4804Z" fill="#A71FFD"/>
<path d="M38.9315 25.955C37.6061 31.0582 32.9503 34.8434 27.4109 34.8434H21.3618V27.4759H27.309C29.8238 27.4759 31.9308 25.4143 31.8968 22.9472C31.8628 20.5139 29.8578 18.5537 27.4109 18.5537H28.0906C39.3053 18.5537 38.9315 25.7523 38.9315 25.955Z" fill="#A71FFD"/>
<path d="M39.3052 23.0148C39.3052 23.9949 39.1692 24.9411 38.9653 25.8536C39.2372 24.5356 39.3052 23.3865 39.3052 23.0148Z" fill="#D74066"/>
<path d="M38.9312 25.955C37.6058 31.0582 32.95 34.8434 27.4106 34.8434H21.3955V27.4759H27.3427C29.8575 27.4759 31.9645 25.4143 31.9305 22.9472C31.8965 20.5139 29.8915 18.5537 27.4446 18.5537H28.1243C39.339 18.5537 38.9312 25.7523 38.9312 25.955Z" fill="url(#paint0_linear_21912_66371)"/>
<path d="M39.271 23.0488C39.271 24.0289 39.1351 24.9752 38.9312 25.8877C39.237 24.5696 39.271 23.4206 39.271 23.0488Z" fill="url(#paint1_linear_21912_66371)"/>
<path d="M38.9312 25.9218C37.6058 31.025 32.95 34.8102 27.4106 34.8102H21.3955V27.4427H27.3427C29.8575 27.4427 31.9645 25.3811 31.9305 22.914C31.8965 20.4807 29.8915 18.5205 27.4446 18.5205H28.1243C39.339 18.5205 38.9312 25.7191 38.9312 25.9218Z" fill="url(#paint2_linear_21912_66371)"/>
<path d="M39.3052 22.9816C39.3052 23.9617 39.1692 24.9079 38.9653 25.8204C39.2372 24.5024 39.3052 23.3533 39.3052 22.9816Z" fill="url(#paint3_linear_21912_66371)"/>
<path d="M28.5324 11.2541C28.1926 11.2541 21.022 11.1527 21.3618 20.4804C21.3618 19.399 22.2454 18.5203 23.3329 18.5203H28.0566C39.3053 18.5203 38.8975 25.7188 38.8975 25.9216C38.8975 25.8878 38.8975 25.854 38.9314 25.854C39.2373 24.5022 39.2713 23.3531 39.2713 23.0151C39.2713 22.9814 39.2713 22.9476 39.2713 22.9138C39.2713 22.88 39.2713 22.88 39.2713 22.88C39.2373 16.8305 34.4796 11.8963 28.5324 11.2541Z" fill="url(#paint4_linear_21912_66371)"/>
<path d="M48.3446 31.0583H46.0337V22.001H48.3446V23.4204C48.9223 22.4741 49.8739 21.8996 51.1313 21.8996V24.2991H50.5196C49.1602 24.2991 48.3446 24.8061 48.3446 26.5634V31.0583Z" fill="#A71FFD"/>
<path d="M52.4229 19.5677C52.4229 18.8241 53.0006 18.2158 53.8502 18.2158C54.6658 18.2158 55.2775 18.7904 55.2775 19.5677C55.2775 20.3112 54.6658 20.9195 53.8502 20.9195C53.0346 20.9195 52.4229 20.345 52.4229 19.5677ZM52.6947 22.001H55.0056V31.0583H52.6947V22.001Z" fill="#A71FFD"/>
<path d="M61.1568 21.832C63.4337 21.832 64.963 23.0149 65.4387 25.0426H62.9579C62.686 24.2653 62.0743 23.7922 61.1228 23.7922C59.8314 23.7922 58.9818 24.7723 58.9818 26.5296C58.9818 28.287 59.8314 29.2333 61.1228 29.2333C62.0743 29.2333 62.6521 28.794 62.9579 27.9829H65.4387C64.963 29.9093 63.4337 31.1935 61.1568 31.1935C58.54 31.1935 56.6709 29.3685 56.6709 26.5296C56.6709 23.6908 58.54 21.832 61.1568 21.832Z" fill="#A71FFD"/>
<path d="M71.1139 31.1939C68.4632 31.1939 66.5601 29.3689 66.5601 26.5301C66.5601 23.6574 68.4292 21.8662 71.1139 21.8662C73.7306 21.8662 75.5998 23.6574 75.5998 26.3273C75.5998 26.6315 75.5998 26.9018 75.5318 27.206H68.871C68.9729 28.5578 69.8905 29.3013 71.0459 29.3013C72.0315 29.3013 72.5752 28.8282 72.8811 28.2199H75.3619C74.8861 29.8759 73.3568 31.1939 71.1139 31.1939ZM68.9049 25.6852H73.2209C73.1869 24.5023 72.2354 23.725 71.0459 23.725C69.9584 23.725 69.0749 24.4347 68.9049 25.6852Z" fill="#A71FFD"/>
<path d="M45.5581 36.4319H46.8495V42.8869H45.5581V36.4319Z" fill="black"/>
<path d="M53.6805 36.3984V42.8535H52.3891L49.4325 38.4262V42.8535H48.1411V36.3984H49.4325L52.3891 40.8257V36.3984H53.6805Z" fill="black"/>
<path d="M57.2146 42.9207C55.8553 42.9207 54.8357 42.211 54.8018 40.9943H56.1951C56.2291 41.5013 56.5689 41.8392 57.1806 41.8392C57.7923 41.8392 58.1662 41.5013 58.1662 41.0619C58.1662 39.6763 54.8357 40.5212 54.8357 38.1555C54.8357 37.0064 55.7873 36.2967 57.1127 36.2967C58.438 36.2967 59.3556 36.9726 59.4236 38.1217H57.9962C57.9623 37.6823 57.6224 37.3782 57.0787 37.3444C56.5689 37.3106 56.1951 37.5809 56.1951 38.0879C56.1951 39.3721 59.5255 38.6624 59.5255 40.9267C59.5255 42.0082 58.7099 42.9207 57.2146 42.9207Z" fill="black"/>
<path d="M60.647 36.4319H61.9384V42.8869H60.647V36.4319Z" fill="black"/>
<path d="M69.2446 38.3582H67.7493C67.4435 37.8175 66.8997 37.5133 66.2201 37.5133C65.0646 37.5133 64.249 38.3245 64.249 39.6087C64.249 40.9267 65.0646 41.7379 66.288 41.7379C67.3075 41.7379 67.9193 41.1633 68.1232 40.2508H65.8802V39.2707H69.3806V40.386C69.1087 41.7041 67.9532 42.8869 66.2201 42.8869C64.317 42.8869 62.8896 41.5351 62.8896 39.6087C62.8896 37.6823 64.317 36.2967 66.1861 36.2967C67.6474 36.3305 68.8028 37.074 69.2446 38.3582Z" fill="black"/>
<path d="M74.4443 40.116H71.6576V42.8535H70.3662V36.3984H71.6576V39.0683H74.4443V36.3984H75.7357V42.8535H74.4443V40.116Z" fill="black"/>
<path d="M76.6875 36.4319H81.4452V37.4796H79.7121V42.8869H78.4207V37.4796H76.6875V36.4319Z" fill="black"/>
<path d="M84.6394 42.9207C83.2801 42.9207 82.2605 42.211 82.2266 40.9943H83.6199C83.6539 41.5013 83.9937 41.8392 84.6054 41.8392C85.2171 41.8392 85.591 41.5013 85.591 41.0619C85.591 39.6763 82.2605 40.5212 82.2605 38.1555C82.2605 37.0064 83.2121 36.2967 84.5375 36.2967C85.8628 36.2967 86.7804 36.9726 86.8484 38.1217H85.421C85.3871 37.6823 85.0472 37.3782 84.5035 37.3444C83.9937 37.3106 83.6199 37.5809 83.6199 38.0879C83.6199 39.3721 86.9503 38.6624 86.9503 40.9267C86.9163 42.0082 86.1007 42.9207 84.6394 42.9207Z" fill="black"/>
<defs>
<linearGradient id="paint0_linear_21912_66371" x1="34.4355" y1="17.6447" x2="31.0302" y2="25.1322" gradientUnits="userSpaceOnUse">
<stop stop-color="#00003A" stop-opacity="0.5"/>
<stop offset="0.25" stop-color="#050032" stop-opacity="0.3746"/>
<stop offset="0.6366" stop-color="#13001C" stop-opacity="0.1806"/>
<stop offset="0.9966" stop-color="#230002" stop-opacity="0"/>
</linearGradient>
<linearGradient id="paint1_linear_21912_66371" x1="40.8674" y1="20.6272" x2="37.4622" y2="28.1147" gradientUnits="userSpaceOnUse">
<stop stop-color="#00003A" stop-opacity="0.5"/>
<stop offset="0.25" stop-color="#050032" stop-opacity="0.3746"/>
<stop offset="0.6366" stop-color="#13001C" stop-opacity="0.1806"/>
<stop offset="0.9966" stop-color="#230002" stop-opacity="0"/>
</linearGradient>
<linearGradient id="paint2_linear_21912_66371" x1="17.4881" y1="26.8604" x2="26.3384" y2="26.6858" gradientUnits="userSpaceOnUse">
<stop stop-color="#00003A" stop-opacity="0.5"/>
<stop offset="0.3168" stop-color="#09002C" stop-opacity="0.3411"/>
<stop offset="0.9122" stop-color="#1F0008" stop-opacity="0.0423847"/>
<stop offset="0.9966" stop-color="#230002" stop-opacity="0"/>
</linearGradient>
<linearGradient id="paint3_linear_21912_66371" x1="16.9044" y1="25.0709" x2="25.4943" y2="24.8092" gradientUnits="userSpaceOnUse">
<stop offset="0.1661" stop-color="#00003A" stop-opacity="0.5"/>
<stop offset="0.3744" stop-color="#050032" stop-opacity="0.3746"/>
<stop offset="0.6966" stop-color="#13001C" stop-opacity="0.1806"/>
<stop offset="0.9966" stop-color="#230002" stop-opacity="0"/>
</linearGradient>
<linearGradient id="paint4_linear_21912_66371" x1="20.33" y1="11.039" x2="37.0331" y2="24.3599" gradientUnits="userSpaceOnUse">
<stop offset="0.1512" stop-color="#00003A" stop-opacity="0.5"/>
<stop offset="0.4724" stop-color="#11001E" stop-opacity="0.3108"/>
<stop offset="0.7897" stop-color="#1E000A" stop-opacity="0.1239"/>
<stop offset="1" stop-color="#230002" stop-opacity="0"/>
</linearGradient>
</defs>
</svg>
